<svg width="400" height="280" viewBox="0 0 400 280" fill="none" xmlns="http://www.w3.org/2000/svg">
    <rect width="400" height="280" fill="#F1F4F6"/>
    <rect y="256" width="400" height="24" fill="#E0E8EC"/>
    <rect x="16" y="267" width="368" height="2" fill="#CDD9DF"/>
    <rect x="16" y="267" width="24" height="2" fill="white"/>
    <circle cx="42" cy="268" r="4" fill="white"/>
    <path d="M215.145 141.418L215.137 141.422L215.13 141.426L192.738 154.755C192.174 155.075 191.467 155.082 190.895 154.774C190.326 154.467 190 153.909 190 153.333C190 153.333 190 153.333 190 153.333V126.661C190.004 126.086 190.331 125.531 190.899 125.226C191.471 124.919 192.176 124.926 192.739 125.243L215.13 138.571L215.137 138.575L215.145 138.58C215.691 138.892 216 139.437 216 139.999C216 140.561 215.691 141.105 215.145 141.418Z" stroke="#AFBCC4" stroke-width="2"/>
    <circle cx="200" cy="140" r="39" stroke="#AFBCC4" stroke-width="2"/>
</svg>